<svg width="11" height="12" viewBox="0 0 11 12" fill="none" xmlns="http://www.w3.org/2000/svg">
<path d="M5.10938 0.990601C5.15625 0.943726 5.22656 0.920288 5.32031 0.920288C5.39062 0.920288 5.46094 0.943726 5.50781 0.990601L10.4062 5.91248C10.4531 5.95935 10.5 6.02966 10.5 6.09998C10.5 6.19373 10.4531 6.2406 10.4062 6.28748L5.50781 11.2094C5.46094 11.2562 5.39062 11.2797 5.32031 11.2797C5.22656 11.2797 5.15625 11.2562 5.10938 11.2094L4.64062 10.7406C4.59375 10.6937 4.57031 10.6469 4.57031 10.5531C4.57031 10.4828 4.59375 10.4125 4.64062 10.3422L8.27344 6.70935H0.28125C0.1875 6.70935 0.117188 6.68591 0.0703125 6.63904C0.0234375 6.59216 0 6.52185 0 6.4281V5.77185C0 5.70154 0.0234375 5.63123 0.0703125 5.58435C0.117188 5.53748 0.1875 5.4906 0.28125 5.4906H8.27344L4.64062 1.85779C4.59375 1.81091 4.57031 1.7406 4.57031 1.64685C4.57031 1.57654 4.59375 1.50623 4.64062 1.45935L5.10938 0.990601Z" fill="currentColor"/>
</svg>
