<svg width="74" height="69" viewBox="0 0 74 69" fill="none" xmlns="http://www.w3.org/2000/svg">
<path fill-rule="evenodd" clip-rule="evenodd" d="M2.53572 30.8446C30.8769 17.9546 53.1479 26.4243 65.7531 41.412C65.9704 41.6689 66.4813 41.6488 66.8931 41.3652C67.305 41.0816 67.465 40.6422 67.2477 40.3853C54.2909 24.9769 31.2994 16.4262 2.16436 29.6777C1.71026 29.8835 1.42486 30.3126 1.52676 30.6361C1.62789 30.9583 2.07964 31.0516 2.53572 30.8446Z" fill="white"/>
<path fill-rule="evenodd" clip-rule="evenodd" d="M66.5598 40.449C65.6006 40.0126 64.4025 39.4516 64.2648 39.3919C60.5328 37.7743 56.7646 36.8243 52.7399 36.3958C52.4133 36.3606 52.1253 36.6009 52.0972 36.9308C52.069 37.2606 52.3125 37.557 52.6391 37.5922C56.5419 38.0064 60.1967 38.9268 63.8166 40.4963C64.0277 40.5877 66.7202 41.8505 67.2828 42.0648C67.5131 42.1538 67.6693 42.1323 67.7057 42.1237C67.9003 42.0853 68.009 41.9785 68.076 41.8799C68.1508 41.768 68.2291 41.5519 68.1631 41.2588C68.0929 40.9523 67.7948 40.3526 67.7316 40.1953C66.7833 37.8197 65.5221 35.2478 64.8305 32.643C64.1708 30.1591 64.0289 27.6422 65.278 25.2543C65.4303 24.9637 65.317 24.5975 65.0267 24.4374C64.7363 24.2773 64.3766 24.3845 64.2243 24.6751C62.8284 27.3451 62.9457 30.1564 63.6828 32.9323C64.3706 35.5216 65.6033 38.0799 66.5598 40.449Z" fill="white"/>
</svg>
