<svg xmlns="http://www.w3.org/2000/svg" width="76" height="10" viewBox="0 0 76 10" fill="none">
<path d="M42.1052 3.83171C42.1052 3.90324 42.0575 3.95093 41.9859 3.95093H33.7833C33.7117 3.95093 33.664 3.90324 33.664 3.83171V0.398033C33.664 0.326499 33.6164 0.278809 33.5448 0.278809H31.2557C31.1842 0.278809 31.1365 0.326499 31.1365 0.398033V9.62603C31.1365 9.69757 31.1842 9.74526 31.2557 9.74526H33.5448C33.6164 9.74526 33.664 9.69757 33.664 9.62603V6.04929C33.664 5.97775 33.7117 5.93006 33.7833 5.93006H41.9859C42.0575 5.93006 42.1052 5.97775 42.1052 6.04929V9.62603C42.1052 9.69757 42.1528 9.74526 42.2244 9.74526H44.5135C44.585 9.74526 44.6327 9.69757 44.6327 9.62603V0.398033C44.6327 0.326499 44.585 0.278809 44.5135 0.278809H42.2244C42.1528 0.278809 42.1052 0.326499 42.1052 0.398033V3.83171Z" fill="white"/>
<path d="M50.7368 7.78997V6.0016C50.7368 5.93006 50.7845 5.88237 50.856 5.88237H55.7919C55.8635 5.88237 55.9112 5.83468 55.9112 5.76315V4.094C55.9112 4.02247 55.8635 3.97478 55.7919 3.97478H50.856C50.7845 3.97478 50.7368 3.92709 50.7368 3.85555V2.25794C50.7368 2.18641 50.7845 2.13872 50.856 2.13872H58.2003C58.2718 2.13872 58.3195 2.09103 58.3195 2.01949V0.398033C58.3195 0.326499 58.2718 0.278809 58.2003 0.278809H50.7368H48.3285C48.2569 0.278809 48.2092 0.326499 48.2092 0.398033V9.62603C48.2092 9.69757 48.2569 9.74526 48.3285 9.74526H50.7368H58.5579C58.6295 9.74526 58.6772 9.69757 58.6772 9.62603V8.02842C58.6772 7.95689 58.6295 7.9092 58.5579 7.9092H50.856C50.7845 7.88535 50.7368 7.86151 50.7368 7.78997Z" fill="white"/>
<path d="M28.251 0.398033C28.251 0.326499 28.2034 0.278809 28.1318 0.278809H22.7667H20.2153H14.8502C14.7786 0.278809 14.731 0.326499 14.731 0.398033V2.09103C14.731 2.16256 14.7786 2.21025 14.8502 2.21025H20.0961C20.1676 2.21025 20.2153 2.25794 20.2153 2.32948V9.62603C20.2153 9.69757 20.263 9.74526 20.3345 9.74526H22.6236C22.6952 9.74526 22.7429 9.69757 22.7429 9.62603V2.32948C22.7429 2.25794 22.7906 2.21025 22.8621 2.21025H28.108C28.1795 2.21025 28.2272 2.16256 28.2272 2.09103V0.398033H28.251Z" fill="white"/>
<path d="M12.2273 9.74526H14.6834C14.7787 9.74526 14.8503 9.62603 14.7787 9.5545L8.72212 0.326499C8.69827 0.302654 8.65058 0.278809 8.62674 0.278809H6.26609C6.2184 0.278809 6.19455 0.302654 6.17071 0.326499L0.018709 9.5545C-0.0289809 9.62603 0.0187089 9.74526 0.114089 9.74526H2.52243C2.57012 9.74526 2.59396 9.72141 2.61781 9.69757L3.78621 7.9092C3.81006 7.88535 3.85775 7.86151 3.88159 7.86151H10.8443C10.892 7.86151 10.9159 7.88535 10.9397 7.9092L12.1081 9.69757C12.1558 9.72141 12.1796 9.74526 12.2273 9.74526ZM5.24075 5.69161L7.29142 2.54408C7.33911 2.47254 7.45833 2.47254 7.50602 2.54408L9.53285 5.69161C9.58054 5.76315 9.53285 5.88237 9.43747 5.88237H5.33613C5.24075 5.88237 5.19306 5.78699 5.24075 5.69161Z" fill="white"/>
<path d="M73.7234 6.28766C74.5818 5.69153 75.1541 4.69004 75.1303 3.54549C75.1064 1.70943 73.5565 0.254883 71.7204 0.254883H64.4477H62.0394C61.9679 0.254883 61.9202 0.302573 61.9202 0.374108V6.88378V9.62595C61.9202 9.69749 61.9679 9.74518 62.0394 9.74518H64.3285C64.4 9.74518 64.4477 9.69749 64.4477 9.62595V7.00301C64.4477 6.93147 64.4954 6.88378 64.567 6.88378H71.2197C71.2674 6.88378 71.2912 6.90763 71.3151 6.93147L73.1988 9.69749C73.2227 9.72133 73.2704 9.74518 73.2942 9.74518H75.6549C75.7502 9.74518 75.8218 9.62595 75.7502 9.55442L73.628 6.45457C73.6519 6.40688 73.6519 6.33535 73.7234 6.28766ZM71.3628 4.90465H65.4969C64.7577 4.90465 64.1139 4.33237 64.1139 3.61702C64.0901 2.85398 64.71 2.23401 65.4492 2.23401H71.3151C72.0543 2.23401 72.6981 2.80629 72.6981 3.52164C72.7219 4.28468 72.1258 4.90465 71.3628 4.90465Z" fill="white"/>
</svg>