<svg width="14" height="13" viewBox="0 0 14 13" fill="none" xmlns="http://www.w3.org/2000/svg">
<path d="M13.5 5.25C13.5 5.48438 13.4297 5.67188 13.2891 5.83594C13.1484 6.02344 12.9609 6.11719 12.75 6.16406V9.375C12.75 9.70312 12.6328 9.96094 12.4219 10.1719C12.1875 10.4062 11.9297 10.5 11.625 10.5C10.6641 9.67969 9.79688 9.04688 9.02344 8.625C7.85156 7.96875 6.65625 7.61719 5.4375 7.52344C5.25 7.61719 5.13281 7.80469 5.08594 8.0625C5.01562 8.32031 5.03906 8.50781 5.17969 8.625C5.25 8.71875 5.29688 8.83594 5.32031 8.95312C5.32031 9.07031 5.29688 9.1875 5.25 9.28125C5.17969 9.39844 5.15625 9.49219 5.15625 9.53906C5.15625 9.58594 5.20312 9.65625 5.29688 9.75C5.34375 9.82031 5.50781 9.96094 5.76562 10.1484L5.95312 10.3125C6.04688 10.4062 6.09375 10.5 6.14062 10.6172C6.16406 10.7578 6.14062 10.875 6.09375 10.9922C5.90625 11.3906 5.57812 11.6719 5.10938 11.8359C4.64062 12 4.17188 12.0469 3.67969 11.9531C3.1875 11.8828 2.78906 11.6953 2.50781 11.4141C2.4375 11.3672 2.39062 11.2734 2.36719 11.1797L2.22656 10.7109C1.99219 10.0547 1.85156 9.5625 1.80469 9.21094C1.66406 8.625 1.64062 8.0625 1.73438 7.5H1.125C0.796875 7.5 0.539062 7.40625 0.328125 7.17188C0.09375 6.96094 0 6.70312 0 6.375V4.125C0 3.82031 0.09375 3.5625 0.328125 3.32812C0.539062 3.11719 0.796875 3 1.125 3H4.875C6.21094 3 7.52344 2.67188 8.8125 1.99219C9.65625 1.57031 10.5938 0.890625 11.625 0C11.9297 0 12.1875 0.117188 12.4219 0.328125C12.6328 0.5625 12.75 0.820312 12.75 1.125V4.33594C12.9609 4.38281 13.1484 4.5 13.2891 4.66406C13.4297 4.85156 13.5 5.03906 13.5 5.25ZM1.125 6.375H4.875V4.125H1.125V6.375ZM3.39844 10.6875C3.53906 10.8047 3.75 10.875 4.03125 10.875C4.28906 10.8984 4.52344 10.875 4.73438 10.7812C4.42969 10.5234 4.21875 10.2656 4.125 10.0078C3.98438 9.72656 3.98438 9.39844 4.125 9.04688C3.98438 8.8125 3.9375 8.57812 3.9375 8.29688C3.9375 8.01562 3.98438 7.75781 4.07812 7.5H2.85938C2.76562 7.96875 2.78906 8.4375 2.88281 8.95312C2.92969 9.28125 3.07031 9.72656 3.28125 10.3359C3.32812 10.5 3.35156 10.6172 3.39844 10.6875ZM11.625 9.02344V1.47656C10.7109 2.20312 9.82031 2.76562 8.97656 3.16406C7.99219 3.63281 7.00781 3.9375 6 4.05469V6.44531C7.00781 6.58594 7.99219 6.86719 8.97656 7.33594C9.82031 7.75781 10.7109 8.32031 11.625 9.02344Z" fill="black"/>
</svg>
