<svg width="20" height="20" viewBox="0 0 20 20" fill="none" xmlns="http://www.w3.org/2000/svg">
<rect width="20" height="20" rx="10" fill="#E8E8E8"/>
<path d="M12.9688 12.5742C13.1445 12.7695 13.1445 13.0625 12.9688 13.2383C12.7734 13.4336 12.4805 13.4336 12.3047 13.2383L10 10.9141L7.67578 13.2383C7.48047 13.4336 7.1875 13.4336 7.01172 13.2383C6.81641 13.0625 6.81641 12.7695 7.01172 12.5742L9.33594 10.25L7.01172 7.92578C6.81641 7.73047 6.81641 7.4375 7.01172 7.26172C7.1875 7.06641 7.48047 7.06641 7.65625 7.26172L10 9.60547L12.3242 7.28125C12.5 7.08594 12.793 7.08594 12.9688 7.28125C13.1641 7.45703 13.1641 7.75 12.9688 7.94531L10.6445 10.25L12.9688 12.5742Z" fill="#9A9C9D"/>
</svg>
