<svg width="20" height="21" viewBox="0 0 20 21" fill="none" xmlns="http://www.w3.org/2000/svg">
<path d="M17.9863 6.07264C17.7946 5.35598 17.2296 4.79098 16.513 4.59931C15.213 4.25098 10.0013 4.25098 10.0013 4.25098C10.0013 4.25098 4.78964 4.25098 3.48964 4.59931C2.77297 4.79098 2.20797 5.35598 2.0163 6.07264C1.66797 7.37264 1.66797 10.9176 1.66797 10.9176C1.66797 10.9176 1.66797 14.4626 2.0163 15.7626C2.20797 16.4793 2.77297 17.0443 3.48964 17.236C4.78964 17.5843 10.0013 17.5843 10.0013 17.5843C10.0013 17.5843 15.213 17.5843 16.513 17.236C17.2305 17.0443 17.7946 16.4793 17.9863 15.7626C18.3346 14.4626 18.3346 10.9176 18.3346 10.9176C18.3346 10.9176 18.3346 7.37264 17.9863 6.07264ZM8.33464 13.8043V8.03098L13.3346 10.9176L8.33464 13.8043Z" fill="#7B7B7B"/>
</svg>
